<?xml version="1.0" encoding="UTF-8"?>
<svg id="Layer_1" data-name="Layer 1" xmlns="http://www.w3.org/2000/svg" viewBox="0 0 400 400">
  <path d="m87.47,339.59c-7.84-9.64-16.18-18.91-23.43-28.98-21.38-29.73-34.73-62.82-39.48-99.21-1.25-9.55-1.86-19.19-2.73-28.43-1.84,2.65-3.52,5.67-5.79,8.15-1.98,2.16-4.55,1.99-5.16-1.31-2.32-12.43-2.4-24.75,5.61-35.4,2.59-3.44,6.47-6.53,10.43-8.15,4.01-1.64,5.67-3.72,5.94-7.71.1-1.44.4-3.34,1.36-4.17,4.17-3.64,2.03-6.99,0-10.5-3.68-6.4-6.94-9.62-13.09-12.75-.94,2.87-1.66,5.83-2.93,8.53-.5,1.07-2.48,2.4-3.34,2.14-1.35-.41-2.8-1.86-3.38-3.23-2.35-5.56.57-14.52,5.9-18.98,5.32-4.45,12.39-5.29,18.15-1.76,2.91,1.78,5.43,4.2,8.45,6.58.38-4.83.22-9.53,1.25-13.96,1.14-4.93,3.11-9.73,5.29-14.32.59-1.25,3.25-1.51,4.96-2.23.09,1.74.62,3.6.19,5.21-.98,3.67-2.42,7.21-3.51,10.34,3.56.16,7.4-.6,10.24.74,2.87,1.35,5.14,4.55,6.98,7.38,2.49,3.84,4.32,8.11,6.48,12.3,3.67-5.22,7.39-10.52,11.11-15.82-.29-.17-.57-.35-.86-.52.08-.29.07-.68.26-.86,2.87-2.68,6.3-4.16,8.81-8.02,2.86-4.38,9.19-6.78,14.38-9.28,4.96-2.39,10.38-3.82,15.91-5.78-.31-.49-.94-1.46-2.05-3.19h16.68c-.13-.72-.31-1.75-.6-3.35,4.12,1.47,7.85,2.8,11.97,4.27v-4.76c5.22,5.96,9.49,1.81,13.61,0,5.04-2.21,9.85-3.16,15.44-2.63,3.12.3,6.6-1.98,9.75-3.46,2.49-1.16,4.69-2.93,7.08-4.33,3.02-1.77,5.92-4.18,9.19-5,4.66-1.17,10-.15,14.36-1.84,6.67-2.59,10.63,3.17,16.15,3.8,2.48.28,4.58,3,7.1,3.9,5.15,1.82,10.38,2.31,16.02,2.5,10.24.34,15.29-5.03,20.59-12,7.05-9.27,16.97-14.41,28.33-15.63,7.71-.83,14.9,1.37,20.81,7.52,11.53,11.99,17.87,26.06,19.52,42.5.22,2.2,1.95,4.26,3.05,6.35,2.7,5.1,1.9,8.65-2.77,12.04-.67.48-1.92,1.09-1.86,1.49.82,5.48-3.3,9.49-4.09,14.21-.44,2.6,2.41,6.92,4.99,8.64,5.98,3.99,9.27,9.67,12.43,15.65.36.68.27,1.58.55,2.31,1,2.53,1.75,5.24,3.2,7.49,1.76,2.74,4.15,5.08,6.23,7.62.41.51.51,1.48.99,1.69,8.07,3.63,9.72,11.64,12.68,18.68.93,2.22,1.03,4.8,1.41,7.23.87,5.53,1.9,11.05,2.45,16.62.61,6.19,4.01,13.15-.85,18.35-3.17,3.4-2.12,7.81-4.35,10.47-4.8,5.71-10.41,10.86-16.23,15.57-4.02,3.25-9.05,5.22-13.47,8.01-5.65,3.57-7.16,2.11-12.81-.88-4.43-2.34-7.49-5.84-11.46-8.38-.64-.41-1.62-.54-1.97-1.09-2.41-3.84-4.05-8.43-7.18-11.51-5.09-5.01-2.72-10.56-2.9-16.09-.22-6.54.18-13.26-3.69-19.21-.9-1.38-.68-3.49-1.07-5.82-2.86,2.44-5.52,4.81-8.3,7.05-10.53,8.49-21.07,16.98-31.68,25.37-2.12,1.68-4.57,2.95-7.85,5.03,4.98,3.7,10.18,6.03,13.03,10.03,5.72,8,10.87,16.6,14.88,25.57,2.77,6.19,3.17,13.42,4.76,20.15.29,1.24,1.12,2.43,1.94,3.46,7.88,9.96,7.41,21.43,6.07,33.06-.36,3.1-1.02,6.17-1.22,9.27-.27,4.2,3.79,7.5,8.33,7.04,7.55-.75,15.09-1.6,22.65-2.16,2.07-.15,5.04-.18,6.17,1.05,4.99,5.46,10.28,10.94,13.86,17.31,2.87,5.12-4.71,11.16-12.45,10.99-3.5-.08-7.23.47-10.46,1.73-2.44.96-4.27,3.5-7.29,6.15,11.91,1.11,22.16,2.06,32.42,3.02-.01.39-.03.79-.04,1.18-5.38.27-10.76.68-16.15.8-26.3.56-52.59,1.12-78.89,1.39-2.19.02-4.4-2.09-6.62-3.18-1.91-.94-3.85-1.84-6.26-2.99-.35,2.51-.55,3.96-.92,6.7-9.57-1-19.1-2.15-28.65-2.95-5.8-.48-11.64-.47-17.47-.61-26.64-.64-53.29-1.16-79.93-1.99-3.53-.11-7.06-1.64-10.51-2.76-5.83-1.89-11.58-4.05-17.41-5.94-10.31-3.35-15.55-12.24-21.99-19.84.18-.16.35-.33.53-.49,5.52,4.83,11.05,9.67,16.57,14.5.48-.51.97-1.02,1.45-1.53-2.38-1.81-4.76-3.63-7.14-5.44.29-.29.58-.57.87-.86,4.34,3.21,8.43,6.89,13.11,9.48,3.54,1.95,7.85,2.52,11.81,3.7-.04-.56-.08-1.13-.12-1.69,2.05.89,4.11,1.78,6.16,2.68-20.79-15.17-36.57-34.93-51.72-55.34.12,1.07.55,1.91,1.09,2.67,7.35,10.23,14.73,20.45,22.09,30.67l.04-.02h.01Zm152.37,22.34c.25,1.09.49,2.18.81,3.59-1.9.29-3.75.58-5.08.78.92.62,2.15,1.44,3.37,2.26-.09.53-.18,1.06-.28,1.6,3.79-1.15,7.59-2.3,10.97-3.33-2.84-1.38-6.39-3.1-9.94-4.82-5.1-4.99-11.99-4.16-17.98-6.24-.13.43-.25.86-.38,1.28,6.17,1.62,12.34,3.25,18.51,4.87h0ZM149.85,72.68c6.1,1.67,10.38,1.46,12.83-.63-2.48-1.57-4.92-3.12-8.01-5.08.75,2.07,1.24,3.44,1.9,5.26-4.24-1.86-7.78-3.42-11.33-4.98-.16.26-.33.51-.49.77,1.76,1.61,3.51,3.23,5.27,4.85-6.86-1.82-13.73-3.64-20.59-5.45-.16.6-.31,1.21-.47,1.81,6.94,1.73,13.87,3.46,20.81,5.18.03-.57.06-1.15.09-1.72h0Zm166.37,277.26c-1.97.91-3.93,1.82-5.9,2.73l.14.89c2.77.3,5.54.61,9.89,1.09-2.07-2.24-3.17-3.43-4.27-4.62-.91-1.32-1.71-2.73-2.73-3.95-3.78-4.5-7.1-4.27-10.31.3,1.14.91,2.22,1.77,3.07,2.45,1.73-.62,3.58-1.27,6.17-2.19-2.15,2.01-3.59,3.35-5.18,4.84,3.41-.58,6.26-1.06,9.1-1.54h.02,0Zm30.99-200.78c-2.02.15-4.03.3-6.05.45v1.36c2.88.36,3.33,6.45,8.02,2.88-.48-1.34-.97-2.71-1.46-4.08,4.54,4.28,9.05,4.33,13.49-.15-2.7-4.02-7.87-4.2-14-.46Zm-.45,191.07c-.77.77-1.59,1.5-2.3,2.32-.82.94-1.56,1.97-2.33,2.95,1.31.41,2.6,1.03,3.94,1.18,1.86.2,3.75.05,5.61.05-1.68-2.22-3.3-4.36-4.91-6.49-1.18-1.35-2.36-2.7-3.53-4.06-3.46-4-7.49-3.74-11.03.87,1.52-.3,2.96-.59,3.78-.75.69,3.03,1.27,5.63,1.66,7.33,3.62-1.35,6.37-2.38,9.13-3.4h-.02Zm-176.77-94.51c1.58,1.9,3.12,3.83,4.75,5.68,3.36,3.83,6.78,7.61,10.17,11.42.46-.4.91-.8,1.37-1.21-4.94-5.49-9.88-11-14.87-16.45-.19-.21-.9.05-1.37.08-9.15-7.1-13.88-16.61-15.37-28.08-.64,1.86-.95,3.69-1,5.53-.2,8.27,5.48,13.72,9.82,19.73,1.57,2.17,3.92,3.77,6.37,6.06.07-1.48.09-2.12.12-2.77h0Zm122.85,98.72c-1.13-.18-2.3-.26-3.39-.56-6.17-1.72-8.18-.84-10.92,4.94-.08.17.17.51.25.74,1.02-.83,2.04-1.67,3.26-2.66.17,1.18.26,1.79.22,1.53,3.68-1.38,7.14-2.68,10.6-3.98-2.58,1.59-5.17,3.18-8.08,4.98,1.85,1.42,3.17,2.44,3.97,3.06,2.5-1.36,4.61-2.5,6.73-3.65.72.54,1.45,1.08,2.17,1.61-6.64-.29-5.18,3.9-4.16,5.49,2.85,4.42,5.73.41,9.99-.77-4.06-4.09-7.34-7.4-10.63-10.71v-.02h-.01Zm-142.73,3.16c15.07,11.82,33.63,18.7,45.85,16.82-2.47-.8-4.93-1.1-6.8-2.31-4.09-2.64-9.94-.67-13.17-5.25,2.25.58,4.59.93,6.72,1.79,15.32,6.16,31.37,7.09,47.08,6.73-1.5-.73-3.48-1.7-5.46-2.67l.37-.63c3.78.75,7.57,1.51,11.35,2.26-8.42-6.23-18.85-4.99-28.11-8.57-9.28-3.59-19.49-4.8-29.29-7.05.06-.4.11-.81.17-1.21,8.21.97,16.42,1.92,24.63,2.91,3.78.46,7.49,2.61,11.36-.3.82-.62,3.63.04,4.44,1.02,5.62,6.76,14.22,4.73,21.28,7.23l-5.71-2.76c7.42.29,15.17,5.01,18.31,10.42,2.46,4.24,7.43,5.17,14.42,2.14-8.04-5.87-15.69-11.45-23.34-17.04l.34-.62c2.51,1.31,5.03,2.62,8.08,4.21-2.42-3.29-4.44-6.03-6.46-8.76.36-.28.72-.57,1.08-.85,1.74,1.91,3.49,3.82,5.23,5.72l.48-.46c-.58-1.22-1.17-2.45-1.75-3.67.19-.11.38-.22.57-.33,1.56,1.74,3.12,3.48,4.68,5.21.36-.15.72-.3,1.08-.45-.32-1.52-.65-3.04-1-4.69,2.39-2.23,1.62-10.45-1.29-10.29-4.31.24-3.49-2.95-4.71-4.71-.82-1.19-.65-3.24-1.63-4.12-7.12-6.42-7.88-14.59-6.99-23.36.34-3.39,1.37-7.18.3-10.14-1.93-5.36-7.86-6.39-12.54-8.05-4.19-1.49-8.95-1.35-14.39-2.05-7.4,8.5-14.96,18.49-25.12,26.23-8.32,6.34-17.33,6.41-26.23,4.46-9.18-2.01-17.9-6.12-28.46-9.89.64,6.19,1.52,11.46,1.6,16.75.06,3.52-.05,7.68-1.82,10.42-2.01,3.1-1.04,4.56.75,6.56,4.7,3.12,9.4,6.23,14.1,9.35h0Zm20.52-168.95c5.02-5.82,10.14-11.56,15-17.51,1.29-1.58,1.8-3.82,2.66-5.75-2.25,2.08-3.76,4.33-5.48,6.41-4.51,5.47-9.12,10.88-13.68,16.31-16.29,10.87-20.55,26.74-18.06,45.24.91-3.92,1.33-7.88,1.73-11.85.95-9.37,2.43-18.38,11.05-24.44,3.16-2.22,5.51-5.6,8.22-8.45-.48,0-.97.02-1.45.04h0Zm84.68-120.2c8.77,3.99,19.53.81,25.33-6.88,7.37-9.78,15.94-18.05,29.26-18.94-6.8-2.88-19.86,2.12-24.67,9.25-2.24,3.31-4.19,7.09-7.18,9.54-3.31,2.71-7.49,4.68-11.6,5.99-3.44,1.1-7.33.78-10.98,1.11-3.07-.18-6.15-.37-9.16-.55,2.48,5.24,7.19,4.71,12.7,3.63-1.48-1.26-2.59-2.2-3.7-3.15h0Zm83.89,21.46c-.6,3.19,1.42,5.06,3.72,6.34,2.94,1.64,6.16,2.76,9.65,4.27-.66-1.93-.77-5.01-2.22-5.9-3.41-2.09-7.46-3.13-11.26-4.59-6.08-5.04-11.81-10.6-18.37-14.9-3.61-2.37-7.77-.24-10.69,2.94,4.85,2,9.04,4.36,13.53,5.44,5.51,1.32,6.23,5.89,8.49,10.1,1.41-1.61,2.77-3.18,4.97-5.69-.59,2.97-.92,4.68-1.51,7.66,1.71-2.63,2.7-4.14,3.68-5.66h.01Zm.87,27.01c.57-1.61,1.88-3.42,1.51-4.78-.39-1.43-2.68-3.64-3.61-3.41-3.7.94-4.49-2.08-6.35-3.72-1.35-1.19-2.69-2.72-4.3-3.2-1.51-.45-3.77-.24-4.95.66-.99.75-.9,2.92-1.28,4.39h4.08c.57,2.59,1.13,5.18,1.82,8.32-7.74-7.32-10.32-7.16-17.45.17-2.15,2.21-4.77,3.97-7.18,5.94-.3-.35-.61-.7-.91-1.05,2.07-2.4,4.15-4.79,6.22-7.19-5.06,2.92-8.72,6.8-9.86,13.69,1.72-1.45,2.54-2.71,3.58-2.92,7.22-1.46,14.45-3.13,21.77-3.85,3.65-.36,7.55.9,11.2,1.91,3.65,1.01,5.98,3.46,5.92,7.61-.03,1.69.15,3.38.28,5.91,2.07-5.83,1.72-13.61-.48-18.5v.02h-.01Zm-261.98,45.27c.28-1.79.57-3.58.92-5.77.58,1.74,1.09,3.24,1.59,4.75.28-.09.56-.17.85-.26-2.22-8.44-4.44-16.88-6.63-25.22,1.9-1.47,3.58-2.77,5.09-3.94,1.89,3.02,3.63,5.8,5.53,8.83,2.27-4.85,1.8-8.07-1.32-11.19-4.88-4.88-13.76-6.12-20.64-2.79,1,.29,1.91.56,2.71.79-1.95,1.59-3.87,3.16-5.79,4.72l.59,1.12h6.29c-4.03,3.61-4,3.58.24,6.66.94.68,1.65,1.69,2.66,2.73-2.05.12-3.63.21-5.71.32,2.9.95,5.26,1.72,7.62,2.5-.09.57-.18,1.13-.27,1.7-1.78.36-3.56.72-5.19,1.05-.34,5.11,2.03,7.5,6.84,8.74,1.9.49,3.15,3.52,4.69,5.38-3.81-4.74-6.72-4.7-10.12.3,3.49,2.21,6.83,2.76,10.07-.41h-.02,0Zm69.71,76.69c0-6.57.21-12.2-.05-17.8-.36-7.78,1.5-14.97,6.23-20.99,4.3-5.47,7.94-11.42,14.02-15.68,5.34-3.73,9.72-9.16,13.59-14.52,2.29-3.17,3.26-7.56,3.91-11.55.33-2.04-1.92-4.38-2.01-6.63-.29-7.06-.11-14.15-.11-22.31-5.34,0-10.96-.5-16.42.22-2.64.35-6.3.26-7.78,4.31-.76,2.07-3.14,4.29-5.27,5-7.4,2.45-13.1,8.69-21.54,8.93-5.95.17-11.9,1.3-17.77,2.41-3.08.58-6.35,1.5-8.9,3.21-5.9,3.97-5.1,12.68,1.09,15.94,3.53,1.86,6.88,4.12,10.51,5.74,2.63,1.17,5.58,2.09,8.42,2.22,6.2.29,8.62,2.09,8.89,7.62.24,4.94-3.36,8.5-8.77,8.84-2.13.13-4.53,0-6.3.95-6.19,3.3-12.77,3.28-19.48,3.33-1.74,0-3.96,1.05-5.12,2.36-3.38,3.81-7.11,5.91-12.32,4.63-1.07-.26-2.31.2-3.4,0-3.09-.58-6.15-1.32-9.21-2.04-1.48-.35-3.03-1.33-4.38-1.09-7.67,1.37-12.31-.72-16.05-7.49-.57-1.04-1.49-2.18-2.53-2.62-2.96-1.24-6.06-2.14-8.99-3.14-.93,29.66,35.55,107.54,61.91,131.44,4.54-4.53,7.41-9.68,6.47-16.34-.58-4.1-1.35-8.18-1.99-12.28-.96-6.13,3.15-12.05,9.1-13.54,3.43-.85,8.15,2.34,10.19-3.11.01-.03.6.11.89.23,5.9,2.44,10.86-1.22,16.19-2.48,5.2-1.23,10.39-2.49,16.57-3.98,1.42-2.9,3.54-7.21,6-12.22-6.09-4.17-10.66-10.69-11.5-19.47-1.48.67-2.32,1.05-4.13,1.87l.04.03h0Zm-50.83,94.67c4.53-7.79,4.53-8.13-.18-13.63-33.13-38.67-53.18-83.36-61.41-133.46-.85-5.19-1.23-10.46-1.82-15.59-4.47-.72-4.44,1.81-4.54,4.47-.63,18.27,1.69,36.25,5.63,54.02,2.07,9.35,4.76,18.56,7.17,27.83-.48.13-.96.26-1.44.39-3.73-14.04-7.46-28.07-11.19-42.11-.31.07-.61.14-.92.21,2.76,12.02,5.53,24.04,8.29,36.06-.42.09-.84.18-1.26.27-2.46-11.16-5.36-22.25-7.25-33.51-1.87-11.15-2.72-22.46-3.98-33.39-5.53,22.05,13.78,96.88,29.69,114.24-4.3-9.74-8.57-19.44-12.85-29.13.38-.17.77-.34,1.15-.5.79,1.63,1.6,3.25,2.35,4.9,13.26,29.05,30.88,55.17,52.92,78.28,7.22,7.57,15.22,14.11,25.07,17.95l1.05-1.16c-1.81-1.27-3.62-2.53-5.43-3.8.11-.03.21-.07.32-.1,5.09,2.54,10.17,5.08,13.81,6.9-10.5-7.97-22.13-16.74-33.66-25.63-1.22-.94-2.01-2.52-2.78-3.93-1.22-2.22-1.78-4.97-3.43-6.75-11.81-12.79-22.13-26.65-30.75-41.76-3.06-5.36-5.83-10.89-8.73-16.35.08-.01.17-.03.25-.04,10.17,15.05,20.34,30.1,30.52,45.15.48-.32.96-.64,1.44-.96-6.12-8.86-12.25-17.72-18.37-26.57.22-.15.45-.3.67-.45,9.8,12.6,19.6,25.21,29.67,38.15h-.01ZM233.2,121.33c-.19.17-.37.33-.56.5,3.18,4.4,6.1,9.02,9.62,13.13,4.08,4.77,8.39,9.44,13.15,13.5,3.73,3.18,8.18,5.81,13.15,4.26,1.29-2.73,2.39-5.07,3.77-7.98-.83-2.14-1.95-5.04-3.48-8.98,2.02,1.51,3.13,2.34,4.88,3.65.33-2.42,1.11-4.41.75-6.16-1.3-6.29-5.95-11-7.36-17.72-1.43-6.86-8.08-11.37-17.03-11.72,2.54,2.05,4.42,3.56,7.37,5.94-6.14-1.45-10.75-2.54-16.44-3.89,2.87,8.1,11.99,8.29,14.97,15.05-4.88-2.81-9.38-5.53-14-8.02-2.59-1.4-5.98-4.34-6.25,2.05-.02.41-1.42.77-2.2,1.16,1.73,2.96,3.29,5.64,4.86,8.33l-.92.63c-1.43-1.24-2.85-2.49-4.28-3.73Zm-140.97,47.47c12.37,2.06,23.6,3.93,35.14,5.85.5-1.72.84-2.89,1.08-3.72-3.98-.71-8.14-.51-11.29-2.19-11.27-6.01-22.21-12.65-32.69-18.72-1.45,2.96-3.04,6.18-4.75,9.68,2.99,1.63,6.45,3.51,9.92,5.4-.15.3-.31.59-.46.89-4.03-1.76-8.07-3.52-11.4-4.97,1.32,1.78,2.53,4.41,4.57,5.87,2.5,1.79,5.66,2.74,8.63,3.78,2.77.97,5.67,1.57,8.52,2.33.05-.25.1-.5.16-.76-2.16-1.01-4.32-2.01-7.42-3.45h-.01Zm187.51-5.15c5.29,8.27,12.05,13.51,22.47,12.31-1.88-8.73-.48-10.57,8.59-12.39,2.16-.43,4.14-1.75,6.2-2.66-.14-.27-.28-.54-.43-.81-1.65.22-3.31.45-6.08.82,2.03-1.59,3.13-2.44,5.23-4.09-2.23.4-3.2.81-4.11.71-6.73-.74-14.72,3.22-19.51-5.11-.21-.36-1.26-.39-1.9-.34-2.66.2-5.31.49-7.97.75-.05.43-.1.85-.15,1.28,2.67,1.92,5.35,3.84,8.05,5.79-3.02.24-5.83.46-9.49.75,1.51,1.16,2.09,1.6,3.19,2.45-1.76.24-2.85.39-4.11.56l.02-.02h0Zm-19.59,60.09l.39-.68c-9.06-6.31-17.9-12.98-27.26-18.82-6.46-4.03-13.65-6.88-20.49-10.3-.52-.26-.81-.93-1.28-1.32-3.14-2.6-11.21-3.39-13.2-1.92,11.43,5.1,23.29,10.39,35.14,15.68-.16.36-.32.71-.48,1.07-2.41-.8-4.81-1.6-7.22-2.4,4.94,3.37,10.51,5.43,15.26,8.68,6.69,4.58,15.01,7.82,17.21,17.04,7.06,3.78,11.06,10.5,16.17,16.21,1.35,1.51,4.56,2.04,5.82,4.6.68,1.37,1.52,2.66,2.29,3.99.17-.07.35-.15.52-.22-.53-1.92-1.05-3.85-1.95-7.1,3.28,4.62,5.73,8.06,8.17,11.51-2.65-14.7-14.64-20.48-25.43-27.56,2.53.51,5.06,1.02,9.06,1.83-6.44-4.19-11.62-7.57-16.81-10.94.18-.35.36-.7.54-1.05,1.18.56,2.36,1.12,3.55,1.68v.02h0ZM44.12,144.19c1.4-.7,3.49-1.44,5.17-2.72.84-.64,1.39-2.3,1.28-3.43-.99-9.86-3.18-19.38-9.62-27.29-3.53-4.33-7.55-8.07-13.81-7.5-.23.02-.43.33-1.2.97.87.31,1.67.59,3.59,1.27-2.6.42-3.54.57-4.57.74,1.19.89,2.27,1.71,4.09,3.08h-4.16c12.71,9.5,16.79,22.89,19.23,34.88Zm-31.16,41.1l1.59.57c.8-1.62,1.79-3.18,2.34-4.89,1.23-3.79,1.95-7.76,3.38-11.47,4.61-11.96,9.98-15.22,22.53-14.67-3.03-.86-6.06-1.72-8.84-2.5,1.64-1.36,3.26-2.7,5.44-4.5-7.8-2.56-13.42.03-18.08,4.64-9.32,9.22-10.22,20.74-8.36,32.82Zm227.52-13.82c-8.46-1.59-12.71-8.2-18.09-13.44,2.96,6.89,6.59,13.21,13.03,17.59,7.78,5.29,15.89,8.19,25.44,4.03-3.64-5.89-10.73-6.93-15.96-10.63-5.34-3.78-10.08-8.4-15.61-13.1.02,8.15,8.2,9.79,11.19,15.54h0Zm-20.96-2.15c-.19.06-.37.11-.56.17.6,1.84,1.03,3.75,1.84,5.49,1.46,3.15,4.58,6.27,4.44,9.28-.35,7.42,5.14,8.7,9.71,11.1,2.44,1.28,5.19,1.98,7.85,2.96.73-2.52,1.46-5.02,2.17-7.47,2.04.34,4.42.73,6.8,1.12.09-.39.18-.77.27-1.16-8.38-4.21-16.75-8.43-24.67-12.41,0-.02.13,1.02.27,2.05-.3.14-.6.27-.9.41-2.41-3.85-4.82-7.69-7.23-11.54h0Zm6.23-122.42v3.69c-3.54-1.47-6.91-2.88-10.27-4.28-.19.39-.37.78-.56,1.17,1.81,1.07,3.62,2.13,5.43,3.2-.13.2-.26.4-.39.6l-11.51-3.23c-.1.28-.19.57-.29.85.83.5,1.67,1,2.51,1.51-4.35,1.24-8.43,2.41-12.51,3.57.06.4.12.8.18,1.19,13.73-1.94,27.69-5.75,40.11,3.89,1.83.18,3.5,1.04,5.02,2.11,2.21,1.55,4.31,3.24,6.46,4.87.28-.38.56-.76.84-1.14-5.9-2.28-6.57-10.26-14.22-11.29-3.73-.5-7.02-4.25-10.8-6.72h0Zm-67.25,314.59c-10.52-6.87-22.05-14.63-33.86-21.94-2.66-1.64-6.31-1.68-9.51-2.46-.2.6-.39,1.2-.59,1.8,7.03,4.96,14.03,9.94,21.1,14.83.88.61,2.11.74,3.2,1.01,3.27.79,6.66,1.25,9.81,2.38,3.84,1.38,7.48,3.31,9.85,4.38ZM65.54,95.59c-2.61-3.95-5.88-5.79-10.24-3.94-7.1,3.02-9.82,16.85-4.52,22.74.78-9.27,6.39-14.73,14.75-18.8h.01Zm288.85,81.82c6.61,7.34,12.36.09,18.64-1.1-2.7-4.61-6.62-3.75-10.77-3.23.77.98,1.23,1.56,1.99,2.52-6.42-.3-12.54-1.96-17.86,4.75,3.82,1.16,6.95,2.11,10.08,3.06.26-.54.51-1.08.77-1.62-.95-1.46-1.9-2.92-2.85-4.39h0Zm11.51-15.44c-2.65-1.55-4.93-2.89-7.22-4.23l-.44.75c.4.64.79,1.28,1.5,2.42-6.98-.79-13.18-.49-17.53,5.3,3.43.82,6.47,1.54,10.22,2.44-.93-2.23-1.58-3.78-2.24-5.34,5.02,6.92,9.85,3.7,15.7-1.35h0Zm-240.13,175.17c10.71,9.87,33.19,21.53,40.56,22.15-10.94-6.68-23.09-14.15-35.32-21.48-1.11-.66-2.77-.39-5.25-.67h.01ZM342.82,64.89c2.85-7.81-10.58-28.27-23.79-34.55,3.64,4.81,7.21,9.54,10.81,14.3-.11-.97-.24-2.16-.38-3.34.37-.12.74-.25,1.1-.37,4.15,8.13,8.3,16.25,12.25,23.97h.01Zm-39.67,238.78c2.91-13.56-9.73-20.12-14.42-30.55.4,3.27,1.59,6.2,3.18,8.9,2.75,4.69,6.78,8.93,8.23,13.95.86,2.98-.63,6.51,3.01,7.7h0ZM88.66,98.92c.31.44.62.89.93,1.33l-8.06,7.5c1.74-.57,3.3-1.45,4.49-2.68,7.21-7.42,12.71-16.72,22.96-20.79.06-.02,0-.31.02-.48-4.44.51-23.69,13.51-23.32,16.06,1.02-.32,2-.64,2.98-.95h0Zm37.02,171.48c.09.46.18.92.26,1.38,9.83-2.94,19.65-5.88,29.48-8.83-11.08-1.8-20.06,4.12-29.75,7.45h0Zm125.62,57.18c.46-.05.92-.09,1.38-.14-1.98-5.4-4.79-10.67-5.72-16.25-1-5.98-.23-12.25-.23-18.4h-1.71c0,6.15.59,12.37-.15,18.42-.85,6.91,4.32,10.92,6.43,16.36h0ZM46.13,97.04c.41.15.82.3,1.24.45,2.58-7.26,5.17-14.51,7.75-21.77-.51-.19-1.02-.37-1.53-.56-6.44,5.85-6.19,14.14-7.46,21.87h0Zm262.48,18.4c.09.66.18,1.32.27,1.97,2.63-.59,5.26-1.17,7.89-1.76,11.93-2.65,15.94-.6,20.1,10.28.71-8.33-3.46-13.34-11.6-12.95-5.58.27-11.11,1.6-16.67,2.45h.01Zm-179.31,241.76c.39-.56.78-1.11,1.16-1.67-8.43-5.65-16.86-11.29-25.29-16.94-.3.43-.59.86-.89,1.29,8.34,5.77,16.68,11.55,25.01,17.32h0Zm35.64-106.29c-7.97,4.41-3.28,14.78-7.71,21.62,1.93-1.23,3.93-2.73,4.41-4.62,1.44-5.69,2.29-11.54,3.31-16.99h0Zm132.55-182.46c.78-2.68-.78-5.73-3.79-6.19-2.59-.4-6.1.87-8.22,2.61-3.79,3.11-4.11,8.76-1.73,13.31.01-9.3,2.26-14.95,6.69-14.7,2.42.14,4.68,3.2,7.04,4.97,0,0,.01,0,.01,0Zm18.72,98.84c4.95,6.58,9.98,1.82,15.17,1.4-4.66-6.06-9.7-1.14-15.17-1.4Zm44.28,24.51c2.84.14,5.7.28,8.84.43-2.89-5.14-9.35-4.91-14.62.29,1.64.77,3.16,1.49,4.91,2.32.39-1.37.69-2.4.87-3.04Zm-169.21-35.91c-1.04-8.64-2.1-17.54-3.11-25.93-2.73,4.25-1.04,19.24,3.11,25.93Zm-74.9,114c-6.32-1.24-11.16,4.54-9.43,11.21,2.97-3.53,6.18-7.34,9.43-11.21Zm-18.06-187.03c.19.31.37.62.56.93,5.71-.85,11.41-1.69,17.12-2.54-.02-.37-.04-.74-.06-1.11-1.12-.26-2.23-.52-3.26-.76.51-.73.85-1.22,1.94-2.8-6.27,2.42-11.28,4.35-16.29,6.28,0,0-.01,0-.01,0Zm81.09-17.14c-5.93-4.34-9.85-3.62-16.72,2.19,2.92.16,5.99.33,10.15.55-2.04-.98-3.14-1.51-4.24-2.04.07-.23.14-.47.21-.7,0,0,10.6,0,10.6,0Zm137.74,275.9c1.35,1.72,2.68,3.41,4.02,5.11.84-.65,1.79-1.62,2.94-2.21,1.02-.52,2.26-.61,3.61-.95-5.46-4.62-7.2-4.8-10.58-1.94h.01ZM60.48,105.68c-.61.07-1.23.14-1.84.21v7.22c2.29-.42,4.57-.84,7.71-1.42-2.65-2.71-4.26-4.36-5.87-6.01Zm258.1-19.95c-2.58-2.33-4.69-4.34-6.92-6.18-.5-.41-1.75-.61-2.17-.28-.63.49-1.21,1.57-1.12,2.32.15,1.25.85,2.43,1.05,2.97,3.2.41,5.91.75,9.16,1.17h0Zm-184.51-12.91l-.24-1.29c-6.34-.57-12,2.7-18.09,3.55.12.61.24,1.22.36,1.84l17.97-4.1Zm139.43,118.62l.45-1.76c-1.92-1.67-3.85-3.34-5.77-5.01-.55.43-1.11.85-1.66,1.28.88,2.11,1.51,4.4,2.82,6.2.36.5,2.72-.43,4.16-.71h0ZM16.11,105.7c3.17-2.01,5.51-4.01,8.21-5.07,2.69-1.06,5.74-1.19,8.23-1.64-6.23-2.37-12.25-.27-16.44,6.72h0Zm321.3,49.48c-5.29,5.21-6.5,8.91-3.64,10.08.16-1.11.31-2.19.39-2.76,1.62-.39,3.95-.59,3.99-1.03.18-1.75-.34-3.57-.75-6.29h.01Zm-82.45,171.33c2.03,5.13,4.07,10.27,6.1,15.4,1.76-6.59-3.3-10.56-6.1-15.4h0Zm-114.06,29.02c-.27.56-.54,1.13-.81,1.69,4.79,2.27,9.59,4.54,14.38,6.82l.67-1.42c-4.75-2.36-9.49-4.72-14.24-7.09Zm-42.06-179.25c.13-.36.25-.72.38-1.09-6.35-2.3-12.7-4.6-19.04-6.9-.15.42-.29.84-.44,1.25,6.37,2.24,12.74,4.49,19.1,6.73h0Zm240.6-6.35c-1.68,2.75-3.23,5.28-4.78,7.82,2.7-1.88,10.17-1.13,4.78-7.82ZM189.82,59.1c.23.67.45,1.33.68,2,3.92-1.33,7.83-2.66,11.75-4-.15-.48-.3-.95-.45-1.43-3.99,1.14-7.99,2.28-11.98,3.43Zm189.59,106.9c-1.65-4.36-4.18-7.66-10.43-8.04,4.01,3.09,7.22,5.57,10.43,8.04ZM120.23,347.14c.26-.34.52-.68.78-1.02-4.12-3.26-8.23-6.53-12.35-9.79-.32.42-.65.85-.97,1.27,4.18,3.18,8.36,6.37,12.54,9.55h0Zm263.93-165.68l-.9-.02v15.18l.9.03v-15.18h0Zm.55,18.64c.73,4.27,1.44,8.47,2.14,12.57,2.14-4.38,1.67-7.27-2.14-12.57h0Z" style="stroke-width: 0px;"/>
  <path d="m87.47,339.59c-7.37-10.22-14.74-20.44-22.09-30.67-.54-.76-.97-1.59-1.09-2.67,15.15,20.42,30.92,40.17,51.72,55.34-2.05-.89-4.11-1.78-6.16-2.68-7.46-6.44-14.92-12.89-22.37-19.33h-.01Z" style="fill: #fff; stroke-width: 0px;"/>
  <path d="m52.87,316.1c-8.97-15.29-18.7-30.21-26.66-46.01-5.61-11.15-8.83-23.5-13.11-35.31l1.7-.59c1.25,3.9,2.54,7.78,3.73,11.7,7,22.98,18.18,43.91,31.27,63.91,1.26,1.92,2.25,4.02,3.37,6.03l-.3.28h0Z" style="stroke-width: 0px;"/>
  <path d="m69.18,80.71c2.77-4.6,4.84-9.04,7.93-12.61,1.2-1.39,4.69-.8,7.14-1.11.18,2.27,1.03,4.77.37,6.77-1.13,3.41-2.93,6.69-5,9.64-1.32,1.88-3.63,3.06-5.49,4.55-1.45-2.12-2.9-4.24-4.95-7.23h0Zm15.27-11.47c-7.83-1.79-12.66,5.52-10.73,13.51,3.31-4.16,6.82-8.59,10.73-13.51Z" style="stroke-width: 0px;"/>
  <path d="m62.77,319.6c-19.29-21.73-32.71-46.81-41.31-74.56,10.41,26.7,23.28,52.02,41.31,74.56Z" style="stroke-width: 0px;"/>
  <path d="m70.71,64.24c-2.28,1.9-3.28,3.41-4.51,3.63-2.6.46-7.13-5.3-6.69-8.69.15-1.14,2.74-3.02,2.81-2.96,2.68,2.34,5.2,4.88,8.38,8.02h.01Z" style="stroke-width: 0px;"/>
  <path d="m43.14,77.67l-3.54,3.54c-1.22-1.8-2.85-3.47-3.46-5.45-.27-.88,1.52-2.4,2.38-3.63,1.38,1.66,2.76,3.31,4.62,5.54Z" style="stroke-width: 0px;"/>
  <path d="m53.17,315.82c6.71,8.31,13.41,16.62,20.12,24.94-.18.16-.35.32-.53.49-6.63-8.38-13.25-16.76-19.88-25.14l.3-.28h-.01Z" style="stroke-width: 0px;"/>
  <path d="m13.19,131.53c1.53,2.7,2.96,4.24,3.13,5.9.09.94-1.9,2.08-2.96,3.13-1.06-1.32-2.71-2.54-2.98-4.01-.2-1.12,1.34-2.56,2.8-5.03h.01Z" style="stroke-width: 0px;"/>
  <path d="m70.57,327.94c5.63,5.92,11.25,11.85,16.88,17.77-.15.15-.3.3-.46.45l-17.48-17.13c.35-.36.7-.73,1.06-1.09Z" style="stroke-width: 0px;"/>
  <path d="m23.22,88.83c-1.83,1.29-3.38,2.95-3.93,2.67-1.34-.69-2.22-2.28-3.28-3.5,1.04-.87,2.2-2.57,3.08-2.43,1.26.2,2.32,1.73,4.13,3.26Z" style="stroke-width: 0px;"/>
  <path d="m96.98,323.55c-10.07-12.94-19.87-25.55-29.67-38.15-.22.15-.45.3-.67.45,6.12,8.86,12.25,17.72,18.37,26.57-.48.32-.96.64-1.44.96-10.17-15.05-20.34-30.1-30.52-45.15-.08.01-.17.03-.25.04,2.9,5.45,5.67,10.99,8.73,16.35,8.63,15.11,18.94,28.97,30.75,41.76,1.65,1.78,2.21,4.53,3.43,6.75.77,1.4,1.56,2.99,2.78,3.93,11.54,8.89,23.17,17.66,33.66,25.63-3.64-1.82-8.72-4.36-13.81-6.9-.11.03-.21.07-.32.1,1.81,1.27,3.62,2.53,5.43,3.8l-1.05,1.16c-9.85-3.84-17.85-10.38-25.07-17.95-22.04-23.11-39.66-49.23-52.92-78.28-.75-1.65-1.57-3.27-2.35-4.9-.38.17-.77.34-1.15.5,4.28,9.69,8.55,19.39,12.85,29.13-15.9-17.36-35.21-92.19-29.69-114.24,1.26,10.92,2.11,22.24,3.98,33.39,1.89,11.26,4.79,22.35,7.25,33.51.42-.09.84-.18,1.26-.27-2.76-12.02-5.53-24.04-8.29-36.06.31-.07.61-.14.92-.21,3.73,14.04,7.46,28.07,11.19,42.11.48-.13.96-.26,1.44-.39-2.41-9.27-5.1-18.48-7.17-27.83-3.94-17.77-6.27-35.75-5.63-54.02.09-2.65.07-5.18,4.54-4.47.59,5.13.97,10.4,1.82,15.59,8.24,50.11,28.28,94.8,61.41,133.46,4.71,5.5,4.72,5.84.18,13.63h0Z" style="fill: #fff; stroke-width: 0px;"/>
  <path d="m233.2,121.33c1.43,1.24,2.85,2.49,4.28,3.73l.92-.63c-1.57-2.68-3.13-5.37-4.86-8.33.78-.39,2.18-.75,2.2-1.16.26-6.39,3.66-3.44,6.25-2.05,4.62,2.49,9.12,5.2,14,8.02-2.98-6.76-12.1-6.94-14.97-15.05,5.69,1.35,10.3,2.43,16.44,3.89-2.95-2.38-4.83-3.9-7.37-5.94,8.95.35,15.6,4.86,17.03,11.72,1.41,6.72,6.06,11.43,7.36,17.72.36,1.75-.42,3.73-.75,6.16-1.75-1.31-2.87-2.15-4.88-3.65,1.53,3.94,2.65,6.84,3.48,8.98-1.37,2.91-2.48,5.25-3.77,7.98-4.97,1.55-9.42-1.08-13.15-4.26-4.76-4.06-9.07-8.73-13.15-13.5-3.52-4.11-6.43-8.73-9.62-13.13.19-.17.37-.33.56-.5h0Z" style="fill: #fff; stroke-width: 0px;"/>
  <path d="m92.23,168.8c3.09,1.44,5.25,2.45,7.42,3.45-.05.25-.1.5-.16.76-2.84-.76-5.75-1.36-8.52-2.33-2.97-1.04-6.12-1.99-8.63-3.78-2.04-1.46-3.24-4.09-4.57-5.87,3.33,1.45,7.37,3.21,11.4,4.97.15-.3.31-.59.46-.89-3.47-1.89-6.93-3.77-9.92-5.4,1.72-3.5,3.3-6.73,4.75-9.68,10.48,6.07,21.41,12.71,32.69,18.72,3.15,1.68,7.31,1.48,11.29,2.19-.24.83-.58,2.01-1.08,3.72-11.54-1.92-22.77-3.79-35.14-5.85h.01Z" style="fill: #fff; stroke-width: 0px;"/>
  <path d="m279.73,163.65c1.26-.17,2.35-.32,4.11-.56-1.1-.84-1.68-1.29-3.19-2.45,3.67-.29,6.47-.51,9.49-.75-2.71-1.95-5.38-3.87-8.05-5.79.05-.43.1-.85.15-1.28,2.66-.26,5.31-.54,7.97-.75.64-.05,1.69-.03,1.9.34,4.79,8.33,12.77,4.36,19.51,5.11.91.1,1.88-.3,4.11-.71-2.11,1.65-3.2,2.5-5.23,4.09,2.77-.38,4.43-.6,6.08-.82.14.27.28.54.43.81-2.06.91-4.04,2.23-6.2,2.66-9.07,1.83-10.47,3.66-8.59,12.39-10.42,1.2-17.17-4.04-22.47-12.31l-.02.02h0Z" style="fill: #fff; stroke-width: 0px;"/>
  <path d="m78.16,152.31c-1.55-1.88-2.79-4.91-4.7-5.4-4.81-1.24-7.18-3.63-6.84-8.74,1.63-.33,3.41-.69,5.19-1.05.09-.57.18-1.13.27-1.7-2.36-.77-4.72-1.55-7.62-2.5,2.08-.12,3.67-.21,5.71-.32-1-1.05-1.71-2.05-2.66-2.73-4.24-3.08-4.26-3.05-.24-6.66h-6.29l-.59-1.12c1.92-1.56,3.83-3.13,5.79-4.72-.8-.23-1.71-.5-2.71-.79,6.87-3.32,15.76-2.08,20.64,2.79,3.13,3.12,3.6,6.35,1.32,11.19-1.9-3.03-3.64-5.81-5.53-8.83-1.51,1.17-3.2,2.47-5.09,3.94,2.2,8.35,4.41,16.78,6.63,25.22-.28.09-.56.17-.85.26-.5-1.5-1.01-3.01-1.59-4.75-.35,2.19-.63,3.98-.92,5.77l.06.13h.02Z" style="fill: #fff; stroke-width: 0px;"/>
  <path d="m260.15,223.74c-1.18-.56-2.36-1.12-3.55-1.68-.18.35-.36.7-.54,1.05,5.18,3.38,10.37,6.75,16.81,10.94-4-.81-6.53-1.32-9.06-1.83,10.79,7.09,22.78,12.86,25.43,27.56-2.45-3.44-4.89-6.89-8.17-11.51.89,3.25,1.42,5.18,1.95,7.1-.17.07-.35.15-.52.22-.77-1.33-1.61-2.62-2.29-3.99-1.26-2.56-4.47-3.1-5.82-4.6-5.11-5.72-9.1-12.43-16.17-16.21-2.2-9.22-10.52-12.46-17.21-17.04-4.75-3.25-10.31-5.31-15.26-8.68,2.41.8,4.81,1.6,7.22,2.4.16-.36.32-.71.48-1.07-11.85-5.29-23.7-10.58-35.14-15.68,2-1.47,10.06-.69,13.2,1.92.47.39.76,1.06,1.28,1.32,6.84,3.42,14.03,6.28,20.49,10.3,9.36,5.83,18.2,12.5,27.26,18.82l-.39.68v-.02h0Z" style="fill: #fff; stroke-width: 0px;"/>
  <path d="m44.12,144.19c-2.44-11.99-6.52-25.38-19.23-34.88h4.16c-1.82-1.37-2.9-2.18-4.09-3.08,1.03-.17,1.97-.32,4.57-.74-1.92-.68-2.72-.96-3.59-1.27.77-.64.98-.95,1.2-.97,6.26-.57,10.28,3.17,13.81,7.5,6.44,7.91,8.64,17.43,9.62,27.29.11,1.12-.44,2.79-1.28,3.43-1.68,1.28-3.78,2.02-5.17,2.72Z" style="fill: #fff; stroke-width: 0px;"/>
  <path d="m340.07,106.92c2.2,4.89,2.55,12.66.48,18.5-.13-2.52-.3-4.22-.28-5.91.07-4.15-2.27-6.61-5.92-7.61-3.65-1.01-7.56-2.27-11.2-1.91-7.31.71-14.54,2.38-21.77,3.85-1.03.21-1.86,1.47-3.58,2.92,1.14-6.89,4.8-10.78,9.86-13.69-2.07,2.4-4.15,4.79-6.22,7.19.3.35.61.7.91,1.05,2.4-1.97,5.02-3.73,7.18-5.94,7.13-7.32,9.72-7.49,17.45-.17-.68-3.14-1.25-5.73-1.82-8.32l-.12.11c2.07,2.01,4.01,4.19,6.27,5.95.69.53,2.28-.12,3.46-.23v4.32h5.37l-.1-.09.03-.02h0Z" style="fill: #fff; stroke-width: 0px;"/>
  <path d="m12.96,185.29c-1.86-12.09-.96-23.6,8.36-32.82,4.66-4.61,10.28-7.2,18.08-4.64-2.18,1.8-3.79,3.14-5.44,4.5,2.78.79,5.81,1.65,8.84,2.5-12.55-.55-17.92,2.71-22.53,14.67-1.43,3.71-2.15,7.68-3.38,11.47-.55,1.7-1.55,3.26-2.34,4.89,0,0-1.59-.57-1.59-.57Z" style="fill: #fff; stroke-width: 0px;"/>
  <path d="m240.48,171.47c-2.99-5.75-11.17-7.39-11.19-15.54,5.53,4.7,10.27,9.32,15.61,13.1,5.23,3.7,12.33,4.74,15.96,10.63-9.55,4.16-17.66,1.25-25.44-4.03-6.43-4.37-10.06-10.69-13.03-17.59,5.38,5.24,9.62,11.85,18.09,13.44h0Z" style="fill: #fff; stroke-width: 0px;"/>
  <path d="m219.53,169.33c2.41,3.85,4.82,7.69,7.23,11.54.3-.14.6-.27.9-.41-.14-1.04-.27-2.07-.27-2.05,7.92,3.98,16.29,8.2,24.67,12.41-.09.39-.18.77-.27,1.16-2.38-.39-4.76-.78-6.8-1.12-.71,2.45-1.44,4.95-2.17,7.47-2.66-.98-5.41-1.67-7.85-2.96-4.56-2.4-10.06-3.68-9.71-11.1.14-3.01-2.98-6.13-4.44-9.28-.81-1.74-1.24-3.66-1.84-5.49.19-.06.37-.11.56-.17h0Z" style="fill: #fff; stroke-width: 0px;"/>
  <path d="m225.76,46.91c3.78,2.47,7.07,6.23,10.8,6.72,7.65,1.02,8.32,9.01,14.22,11.29-.28.38-.56.76-.84,1.14-2.15-1.63-4.25-3.33-6.46-4.87-1.52-1.07-3.19-1.93-5.02-2.11-12.42-9.64-26.38-5.83-40.11-3.89-.06-.4-.12-.8-.18-1.19,4.08-1.17,8.16-2.33,12.51-3.57-.84-.51-1.67-1.01-2.51-1.51.1-.28.19-.57.29-.85l11.51,3.23c.13-.2.26-.4.39-.6-1.81-1.07-3.62-2.13-5.43-3.2.19-.39.37-.78.56-1.17,3.37,1.4,6.73,2.8,10.27,4.28v-3.69h0Z" style="fill: #fff; stroke-width: 0px;"/>
  <path d="m158.51,361.51c-2.37-1.07-6.01-3-9.85-4.38-3.15-1.13-6.53-1.59-9.81-2.38-1.09-.26-2.32-.4-3.2-1.01-7.07-4.89-14.08-9.87-21.1-14.83.2-.6.39-1.2.59-1.8,3.2.78,6.85.82,9.51,2.46,11.82,7.3,23.35,15.07,33.86,21.94Z" style="fill: #fff; stroke-width: 0px;"/>
  <path d="m65.54,95.59c-8.36,4.07-13.97,9.54-14.75,18.8-5.3-5.89-2.59-19.72,4.52-22.74,4.35-1.85,7.62,0,10.24,3.94,0,0-.01,0-.01,0Z" style="fill: #fff; stroke-width: 0px;"/>
  <path d="m339.2,79.91c-.99,1.51-1.97,3.03-3.68,5.66.59-2.98.93-4.69,1.51-7.66-2.2,2.51-3.56,4.07-4.97,5.69-2.26-4.21-2.99-8.77-8.49-10.1-4.5-1.08-8.69-3.43-13.53-5.44,2.93-3.19,7.08-5.31,10.69-2.94,6.56,4.3,12.29,9.87,18.37,14.9l.1-.11h0Z" style="fill: #fff; stroke-width: 0px;"/>
  <path d="m255.43,58.49c3.69-.31,7.58,0,11.02-1.09,4.11-1.31,8.3-3.27,11.6-5.99,2.99-2.45,4.95-6.23,7.18-9.54,4.81-7.13,17.87-12.12,24.67-9.25-13.32.9-21.89,9.16-29.26,18.94-5.8,7.69-16.56,10.87-25.33,6.88l.12.04h0Z" style="fill: #fff; stroke-width: 0px;"/>
  <path d="m170.62,178.65c.48,0,.97-.02,1.45-.04-2.72,2.85-5.06,6.23-8.22,8.45-8.63,6.07-10.1,15.07-11.05,24.44-.4,3.96-.82,7.92-1.73,11.85-2.49-18.51,1.77-34.38,18.06-45.24.5.18,1,.36,1.49.54Z" style="fill: #fff; stroke-width: 0px;"/>
  <path d="m354.39,177.41c.95,1.46,1.9,2.92,2.85,4.39-.26.54-.51,1.08-.77,1.62-3.13-.95-6.26-1.9-10.08-3.06,5.32-6.71,11.44-5.05,17.86-4.75-.76-.96-1.22-1.55-1.99-2.52,4.15-.52,8.07-1.38,10.77,3.23-6.28,1.19-12.03,8.44-18.64,1.1h0Z" style="fill: #fff; stroke-width: 0px;"/>
  <path d="m365.89,161.97c-5.85,5.05-10.68,8.26-15.7,1.35.65,1.55,1.3,3.11,2.24,5.34-3.75-.89-6.79-1.62-10.22-2.44,4.36-5.79,10.55-6.09,17.53-5.3-.71-1.14-1.11-1.78-1.5-2.42l.44-.75c2.28,1.34,4.57,2.68,7.22,4.23h0Z" style="fill: #fff; stroke-width: 0px;"/>
  <path d="m125.76,337.14c2.48.28,4.14,0,5.25.67,12.23,7.32,24.37,14.79,35.32,21.48-7.38-.62-29.85-12.27-40.56-22.15h-.01Z" style="fill: #fff; stroke-width: 0px;"/>
  <path d="m175.99,356.86c3.23,4.59,9.08,2.61,13.17,5.25,1.87,1.21,4.33,1.51,6.8,2.31-12.21,1.88-30.77-4.99-45.85-16.82,1.97.74,3.93,1.51,5.9,2.22,6.72,2.42,13.44,4.82,20.16,7.22l-.18-.19h0Z" style="fill: #fff; stroke-width: 0px;"/>
  <path d="m342.82,64.89c-3.94-7.72-8.1-15.84-12.25-23.97-.37.12-.74.25-1.1.37.13,1.19.27,2.38.38,3.34-3.6-4.76-7.17-9.48-10.81-14.3,13.21,6.28,26.64,26.74,23.79,34.55h-.01Z" style="fill: #fff; stroke-width: 0px;"/>
  <path d="m292.84,344.45c3.29,3.31,6.57,6.62,10.63,10.71-4.25,1.18-7.14,5.19-9.99.77-1.03-1.59-2.48-5.78,4.16-5.49-.72-.54-1.45-1.08-2.17-1.61-2.11,1.15-4.23,2.3-6.73,3.65-.8-.62-2.12-1.63-3.97-3.06,2.91-1.79,5.49-3.38,8.08-4.98h0Z" style="fill: #fff; stroke-width: 0px;"/>
  <path d="m303.15,303.68c-3.65-1.19-2.15-4.72-3.01-7.7-1.45-5.02-5.48-9.26-8.23-13.95-1.58-2.7-2.78-5.64-3.18-8.9,4.69,10.43,17.34,17,14.42,30.55h0Z" style="fill: #fff; stroke-width: 0px;"/>
  <path d="m88.66,98.92c-.98.31-1.96.62-2.98.95-.36-2.55,18.88-15.55,23.32-16.06,0,.17.04.46-.01.48-10.25,4.07-15.76,13.37-22.96,20.79-1.19,1.23-2.75,2.11-4.49,2.68l8.06-7.5c-.31-.44-.62-.89-.93-1.33h0Z" style="fill: #fff; stroke-width: 0px;"/>
  <path d="m169.99,245.73c-.03.65-.06,1.29-.12,2.77-2.45-2.29-4.81-3.89-6.37-6.06-4.34-6.01-10.01-11.46-9.82-19.73.04-1.84.36-3.67,1-5.53,1.49,11.48,6.22,20.98,15.37,28.08l-.05.47h-.01Z" style="fill: #fff; stroke-width: 0px;"/>
  <path d="m176.17,357.05c-6.72-2.41-13.44-4.8-20.16-7.22-1.98-.71-3.94-1.48-5.9-2.22-4.7-3.12-9.4-6.23-14.1-9.35,1.21.22,2.54.18,3.61.69,11.71,5.61,23.39,11.29,35.06,16.98.55.27.99.74,1.48,1.12h.01Z" style="stroke-width: 0px;"/>
  <path d="m346.77,340.24c-2.76,1.03-5.51,2.06-9.13,3.41-.39-1.71-.97-4.3-1.66-7.33-.81.16-2.25.45-3.78.75,3.55-4.61,7.57-4.87,11.03-.87,1.17,1.36,2.35,2.71,3.53,4.06h0v-.02h.01Z" style="fill: #fff; stroke-width: 0px;"/>
  <path d="m125.67,270.4c9.68-3.33,18.66-9.25,29.75-7.45-9.83,2.94-19.65,5.88-29.48,8.83-.09-.46-.18-.92-.26-1.38h-.01Z" style="fill: #fff; stroke-width: 0px;"/>
  <path d="m251.3,327.58c-2.11-5.44-7.28-9.45-6.43-16.36.74-6.06.15-12.28.15-18.42h1.71c0,6.15-.77,12.42.23,18.4.93,5.58,3.74,10.84,5.72,16.25-.46.05-.92.09-1.38.14h0Z" style="fill: #fff; stroke-width: 0px;"/>
  <path d="m325.17,96.87h-4.08c.37-1.47.29-3.64,1.28-4.39,1.18-.9,3.44-1.11,4.95-.66,1.61.48,2.95,2.01,4.3,3.2,1.85,1.64,2.65,4.66,6.35,3.72.93-.24,3.22,1.97,3.61,3.41.37,1.36-.94,3.17-1.51,4.78l.1.09-.96-6.08c-1.5.67-2.99,1.35-4.49,2.02-1.52-2.49-2.76-5.23-4.65-7.4-2.16-2.49-4.29-2.39-5.02,1.42l.12-.11h0Z" style="fill: #fff; stroke-width: 0px;"/>
  <path d="m46.13,97.04c1.26-7.74,1.02-16.02,7.46-21.87.51.19,1.02.37,1.53.56-2.58,7.26-5.17,14.51-7.75,21.77-.41-.15-.82-.3-1.24-.45h0Z" style="fill: #fff; stroke-width: 0px;"/>
  <path d="m308.61,115.44c5.55-.85,11.08-2.18,16.67-2.45,8.14-.39,12.31,4.61,11.6,12.95-4.15-10.88-8.16-12.93-20.1-10.28-2.63.59-5.26,1.17-7.89,1.76-.09-.66-.18-1.32-.27-1.97h-.01Z" style="fill: #fff; stroke-width: 0px;"/>
  <path d="m347.22,149.17c6.13-3.74,11.3-3.56,14,.46-4.44,4.48-8.95,4.43-13.49.15-.19-.19-.36-.39-.51-.61Z" style="fill: #fff; stroke-width: 0px;"/>
  <path d="m339.1,80.02c3.79,1.46,7.85,2.5,11.26,4.59,1.45.89,1.55,3.97,2.22,5.9-3.48-1.51-6.71-2.64-9.65-4.27-2.3-1.28-4.33-3.15-3.72-6.34l-.1.11h-.01Z" style="fill: #fff; stroke-width: 0px;"/>
  <path d="m129.3,357.2c-8.34-5.77-16.68-11.55-25.01-17.32.3-.43.59-.86.89-1.29,8.43,5.65,16.86,11.29,25.29,16.94-.39.56-.78,1.11-1.16,1.67h0Z" style="fill: #fff; stroke-width: 0px;"/>
  <path d="m164.93,250.92c-1.02,5.46-1.87,11.3-3.31,16.99-.48,1.89-2.48,3.4-4.41,4.62,4.43-6.83-.26-17.21,7.71-21.62h0Z" style="fill: #fff; stroke-width: 0px;"/>
  <path d="m316.22,349.94c-2.85.48-5.7.96-9.11,1.54,1.59-1.49,3.03-2.83,5.18-4.84-2.59.92-4.44,1.57-6.17,2.19-.85-.68-1.94-1.55-3.07-2.45,3.2-4.57,6.53-4.81,10.31-.3,1.02,1.22,1.83,2.63,2.73,3.95l.13-.08h0Z" style="fill: #fff; stroke-width: 0px;"/>
  <path d="m170.62,178.65c-.5-.18-1-.36-1.49-.54,4.57-5.43,9.17-10.83,13.68-16.31,1.71-2.08,3.23-4.32,5.48-6.41-.87,1.93-1.37,4.16-2.66,5.75-4.86,5.95-9.98,11.69-15,17.51h0Z" style="fill: #fff; stroke-width: 0px;"/>
  <path d="m150.01,72.86c-1.76-1.61-3.51-3.23-5.27-4.84.16-.26.33-.51.49-.77,3.55,1.56,7.09,3.12,11.33,4.98-.66-1.82-1.15-3.19-1.9-5.26,3.1,1.96,5.54,3.51,8.01,5.08-2.45,2.09-6.73,2.3-12.83.63l.16.18h0Z" style="fill: #fff; stroke-width: 0px;"/>
  <path d="m239.69,362.01c3.55,1.72,7.1,3.44,9.94,4.82-3.38,1.03-7.17,2.18-10.97,3.33.09-.53.18-1.06.28-1.6-1.22-.82-2.45-1.64-3.37-2.26,1.33-.2,3.18-.49,5.08-.78-.32-1.41-.57-2.5-.82-3.59l-.14.08h0Z" style="fill: #fff; stroke-width: 0px;"/>
  <path d="m297.48,68.45c-2.36-1.76-4.62-4.83-7.04-4.97-4.43-.25-6.68,5.4-6.69,14.7-2.38-4.55-2.06-10.2,1.73-13.31,2.11-1.74,5.62-3,8.22-2.61,3.01.46,4.56,3.51,3.79,6.19h-.01Z" style="fill: #fff; stroke-width: 0px;"/>
  <path d="m316.2,167.29c5.47.27,10.51-4.66,15.17,1.4-5.19.42-10.22,5.18-15.17-1.4Z" style="fill: #fff; stroke-width: 0px;"/>
  <path d="m360.48,191.8c-.18.64-.48,1.67-.87,3.04-1.75-.83-3.27-1.55-4.91-2.32,5.27-5.2,11.73-5.43,14.62-.29-3.14-.15-6-.29-8.84-.43Z" style="fill: #fff; stroke-width: 0px;"/>
  <path d="m191.27,155.89c-4.15-6.69-5.85-21.67-3.11-25.93,1.01,8.39,2.07,17.28,3.11,25.93h0Z" style="fill: #fff; stroke-width: 0px;"/>
  <path d="m116.37,269.89c-3.26,3.87-6.46,7.68-9.43,11.21-1.73-6.67,3.11-12.45,9.43-11.21Z" style="fill: #fff; stroke-width: 0px;"/>
  <path d="m98.31,82.86c5.01-1.93,10.02-3.86,16.29-6.28-1.09,1.57-1.44,2.07-1.94,2.8,1.03.24,2.15.5,3.26.76.02.37.04.74.06,1.11-5.71.85-11.41,1.69-17.12,2.54-.19-.31-.37-.62-.56-.93,0,0,.01,0,.01,0Z" style="fill: #fff; stroke-width: 0px;"/>
  <path d="m149.85,72.68c-.03.57-.06,1.15-.09,1.72-6.94-1.73-13.87-3.46-20.81-5.18.16-.6.31-1.21.47-1.81,6.86,1.82,13.73,3.64,20.59,5.45l-.16-.18Z" style="fill: #fff; stroke-width: 0px;"/>
  <path d="m292.85,344.44c-3.46,1.3-6.92,2.6-10.6,3.98.04.25-.05-.36-.22-1.53-1.21.99-2.24,1.83-3.26,2.66-.09-.23-.34-.56-.25-.74,2.75-5.78,4.76-6.66,10.92-4.94,1.1.31,2.26.38,3.39.56h.02Z" style="fill: #fff; stroke-width: 0px;"/>
  <path d="m179.4,65.73h-10.59c-.07.23-.14.47-.21.7,1.1.53,2.19,1.06,4.24,2.04-4.17-.23-7.23-.39-10.15-.55,6.86-5.81,10.79-6.53,16.72-2.19h-.01Z" style="fill: #fff; stroke-width: 0px;"/>
  <path d="m78.09,152.18c-3.24,3.17-6.58,2.62-10.07.41,3.4-4.99,6.31-5.03,10.12-.29l-.06-.12h0Z" style="fill: #fff; stroke-width: 0px;"/>
  <path d="m317.14,341.62c3.38-2.86,5.12-2.67,10.58,1.94-1.36.34-2.59.43-3.61.95-1.15.59-2.11,1.57-2.94,2.21-1.34-1.7-2.67-3.39-4.02-5.11h-.01Z" style="fill: #fff; stroke-width: 0px;"/>
  <path d="m169.99,245.73l.05-.47c.47-.04,1.17-.3,1.37-.08,4.99,5.45,9.92,10.96,14.87,16.45-.46.4-.91.8-1.37,1.21-3.39-3.8-6.8-7.59-10.17-11.42-1.63-1.85-3.17-3.79-4.75-5.68h0Z" style="fill: #fff; stroke-width: 0px;"/>
  <path d="m60.48,105.68c1.61,1.65,3.22,3.29,5.87,6.01-3.14.58-5.42,1-7.71,1.42v-7.22c.61-.07,1.23-.14,1.84-.21Z" style="fill: #fff; stroke-width: 0px;"/>
  <path d="m318.58,85.73c-3.25-.41-5.96-.76-9.16-1.17-.21-.54-.9-1.72-1.05-2.97-.09-.75.49-1.83,1.12-2.32.42-.33,1.67-.13,2.17.28,2.24,1.84,4.34,3.84,6.92,6.18h0Z" style="fill: #fff; stroke-width: 0px;"/>
  <path d="m134.07,72.83l-17.97,4.1c-.12-.61-.24-1.22-.36-1.84,6.09-.85,11.75-4.12,18.09-3.55l.24,1.29Z" style="fill: #fff; stroke-width: 0px;"/>
  <path d="m273.49,191.44c-1.44.28-3.8,1.21-4.16.71-1.3-1.8-1.93-4.09-2.82-6.2.55-.43,1.11-.85,1.66-1.28,1.92,1.67,3.85,3.34,5.77,5.01l-.45,1.76h0Z" style="fill: #fff; stroke-width: 0px;"/>
  <path d="m346.76,340.25c1.62,2.14,3.24,4.27,4.91,6.49-1.86,0-3.75.15-5.61-.05-1.34-.15-2.63-.77-3.94-1.18.77-.99,1.5-2.01,2.33-2.95.71-.82,1.53-1.55,2.3-2.32h.01Z" style="fill: #fff; stroke-width: 0px;"/>
  <path d="m255.31,58.45c1.11.94,2.22,1.89,3.7,3.15-5.51,1.07-10.22,1.61-12.7-3.63,3.01.18,6.08.37,9.14.54-.02,0-.14-.05-.14-.05h0Z" style="fill: #fff; stroke-width: 0px;"/>
  <path d="m347.22,149.17c.15.22.32.42.51.61.49,1.37.98,2.74,1.46,4.08-4.69,3.58-5.14-2.51-8.02-2.88v-1.36c2.02-.15,4.03-.3,6.05-.45Z" style="fill: #fff; stroke-width: 0px;"/>
  <path d="m16.11,105.7c4.19-6.99,10.21-9.09,16.44-6.72-2.48.46-5.54.59-8.23,1.64-2.7,1.07-5.04,3.06-8.21,5.07h0Z" style="fill: #fff; stroke-width: 0px;"/>
  <path d="m337.41,155.19c.4,2.72.93,4.55.75,6.29-.05.44-2.38.64-3.99,1.03-.08.57-.23,1.65-.39,2.76-2.86-1.18-1.65-4.87,3.64-10.08h-.01Z" style="fill: #fff; stroke-width: 0px;"/>
  <path d="m254.96,326.52c2.79,4.84,7.86,8.81,6.1,15.4-2.03-5.13-4.07-10.27-6.1-15.4h0Z" style="fill: #fff; stroke-width: 0px;"/>
  <path d="m140.9,355.54c4.75,2.36,9.49,4.72,14.24,7.09l-.67,1.42c-4.79-2.27-9.59-4.54-14.38-6.82.27-.56.54-1.13.81-1.69Z" style="fill: #fff; stroke-width: 0px;"/>
  <path d="m239.69,362.01l.14-.08c-6.17-1.63-12.33-3.25-18.5-4.88.13-.43.25-.86.38-1.28,5.99,2.08,12.88,1.25,17.98,6.24Z" style="fill: #fff; stroke-width: 0px;"/>
  <path d="m98.84,176.29c-6.37-2.24-12.74-4.49-19.1-6.73.15-.42.29-.84.44-1.25,6.35,2.3,12.7,4.6,19.04,6.9-.13.36-.25.72-.38,1.09h0Z" style="fill: #fff; stroke-width: 0px;"/>
  <path d="m316.09,350.02c1.1,1.19,2.2,2.38,4.27,4.62-4.35-.48-7.12-.78-9.89-1.09l-.14-.89c1.97-.91,3.93-1.82,5.9-2.73l-.13.08h0Z" style="fill: #fff; stroke-width: 0px;"/>
  <path d="m339.43,169.93c5.38,6.7-2.08,5.94-4.78,7.82,1.55-2.54,3.1-5.08,4.78-7.82Z" style="fill: #fff; stroke-width: 0px;"/>
  <path d="m189.82,59.1c3.99-1.14,7.99-2.28,11.98-3.43.15.48.3.95.45,1.43-3.92,1.33-7.83,2.66-11.75,4-.23-.67-.45-1.33-.68-2Z" style="fill: #fff; stroke-width: 0px;"/>
  <path d="m379.41,166c-3.21-2.48-6.42-4.95-10.43-8.04,6.25.39,8.78,3.69,10.43,8.04Z" style="fill: #fff; stroke-width: 0px;"/>
  <path d="m120.23,347.14c-4.18-3.18-8.36-6.37-12.54-9.55.32-.42.65-.85.97-1.27,4.12,3.26,8.23,6.53,12.35,9.79-.26.34-.52.68-.78,1.02h0Z" style="fill: #fff; stroke-width: 0px;"/>
  <path d="m384.16,181.47v15.18l-.9-.03v-15.18l.9.02h0Z" style="fill: #fff; stroke-width: 0px;"/>
  <path d="m384.72,200.11c3.81,5.3,4.28,8.19,2.14,12.57-.7-4.11-1.41-8.3-2.14-12.57h0Z" style="fill: #fff; stroke-width: 0px;"/>
  <path d="m84.45,69.24c-3.91,4.92-7.43,9.34-10.73,13.51-1.93-7.98,2.91-15.29,10.73-13.51Z" style="fill: #fff; stroke-width: 0px;"/>
  <path d="m170.88,346.09c-2.22-3.41-4.38-5.35-4.52-7.42-.09-1.33,3.32-4.33,4.25-4,2.12.75,4.55,2.83,5.14,4.87.36,1.25-2.43,3.42-4.86,6.55h0Z" style="stroke-width: 0px;"/>
  <path d="m257.97,363.91c-13.76-7.53-27.53-15.06-41.29-22.59,14.76,5.75,29.02,12.43,41.29,22.59Z" style="stroke-width: 0px;"/>
  <path d="m160.71,341.29c-1.66,1.21-2.9,2.44-3.18,2.25-1.67-1.13-3.12-2.58-4.64-3.93.66-.72,1.68-2.16,1.93-2.03,1.79.89,3.43,2.1,5.89,3.71Z" style="stroke-width: 0px;"/>
  <path d="m325.05,96.97c.73-3.82,2.86-3.91,5.02-1.42,1.89,2.17,3.12,4.91,4.65,7.4l.07-.26c-1.18.11-2.78.76-3.46.23-2.27-1.75-4.21-3.93-6.27-5.95,0,0-.01,0-.01,0Z" style="stroke-width: 0px;"/>
  <path d="m334.79,102.69l-.07.26c1.49-.67,2.99-1.35,4.48-2.02l.96,6.08h-5.37v-4.32Z" style="stroke-width: 0px;"/>
</svg>